<?xml version="1.0" ?><svg data-name="Layer 1" id="Layer_1" viewBox="0 0 508.33 508.36" xmlns="http://www.w3.org/2000/svg"><defs><style>.cls-1{fill:#ff5a5f;fill-rule:evenodd;}.cls-2{fill:#fff;}</style></defs><title/><path class="cls-1" d="M485,29.72c11.45,15.13,16.61,40.21,19.15,70.7,3.36,45.5,4.71,100.1,6,156.52-1.67,57.47-2.35,115.43-6,156.52-2.88,31.54-9,52.66-19.22,65.47-13,12.79-37.94,23.59-73.5,26.15-43.25,3.69-96.61,3.65-155.48,5.1-65.44-1.12-109.82-.64-156.38-5.08-36.32-2.52-60.08-13.19-74.7-26.07-10.83-14.54-14-30-17-66.24-3.75-41.85-4.58-98.56-6-155.54C4,200.57,4.13,143.44,7.9,100.74,10.43,67.05,14.42,44.4,24.65,30,39,17.77,63.48,11.69,100,8.69c50-5.85,102.06-7,155.88-6.87,55.39.09,108.56,1.67,156,6.34,32,2.56,58.48,8.07,73.07,21.56Z" transform="translate(-1.83 -1.82)"/><g id="Airbnb"><path class="cls-2" d="M381.62,310.38l-40.54-86.2-1.25-2.75c-16.76-34.78-33.53-70.06-44.54-93.46a50,50,0,0,0-90.46,0c-11.51,25-29.28,62.56-46.67,98.59l-39.66,83.82a61.8,61.8,0,0,0-6.13,26.4,62.56,62.56,0,0,0,62.56,62.56c21.64,0,48.67-14.64,74.44-40.29h1.38c25.65,25.65,52.67,40.29,74.32,40.29a62.56,62.56,0,0,0,62.56-62.56A61.68,61.68,0,0,0,381.62,310.38ZM250,327.14c-15.14-12.51-37.53-36.78-37.53-65.43a37.53,37.53,0,0,1,75.07,0C287.53,290,265,314.13,250,327.14Zm75.07,47.17c-14,0-35.41-12.51-55.17-31.4,19.64-17.77,42.66-46,42.66-81.2a62.56,62.56,0,0,0-125.11,0c0,35.66,22.9,63.81,42.54,81.32-19.77,18.77-41,31.28-55,31.28A37.26,37.26,0,0,1,141,321l39.66-84.32c17.39-36.66,35.16-74.19,46.67-98.59a25,25,0,0,1,45.17,0c11.13,23.52,27.52,59.43,44.66,94.58l1.25,2.75L359,321a36.78,36.78,0,0,1,3.63,15.76A37.53,37.53,0,0,1,325.07,374.31Z" transform="translate(-1.83 -1.82)"/></g></svg>